<svg xmlns="http://www.w3.org/2000/svg" width="145.97" height="80.52" viewBox="0 0 145.97 80.52">
	<style type="text/css">
		.st2{fill:#2283c5;}
		.st1{fill:#1e689b;}
		.st4{fill:#b1b1b1;}
		.st3{fill:#d9d9d9;}
		.st6{fill:#ffffff;}
		.st5{fill:#dbedf9;}
		.st7{fill:#8e9db0;}
		.st0{fill:#232323;}
	</style>
	<path class="st0" d="M128.22,0L17.75,0C15.15,0 13.05,2.1 13.05,4.69L13.05,74L132.91,74L132.91,4.69C132.91,2.1 130.81,0 128.22,0"/>
	<path class="st1" d="M18.92 5.87L127.04 5.87L127.04 68.13L18.92 68.13Z"/>
	<path class="st2" d="M18.92 16.89L127.04 16.89L127.04 68.13L18.92 68.13Z"/>
	<path class="st3" d="M0 74L145.97 74L145.97 80.52L0 80.52Z"/>
	<path class="st4" d="M86.03,74L59.93,74C59.93,75.8 61.39,77.26 63.19,77.26L82.77,77.26C84.57,77.26 86.03,75.8 86.03,74"/>
	<path class="st5" d="M30.33 25.91L115.63 25.91L115.63 42.72L30.33 42.72Z"/>
	<path class="st5" d="M30.33 46.99L66.92 46.99L66.92 48.12L30.33 48.12Z"/>
	<path class="st5" d="M30.33 51.49L66.92 51.49L66.92 52.62L30.33 52.62Z"/>
	<path class="st5" d="M30.33 56L66.92 56L66.92 57.13L30.33 57.13Z"/>
	<path class="st5" d="M30.33 60.5L66.92 60.5L66.92 61.63L30.33 61.63Z"/>
	<path class="st5" d="M75.49 47.04L115.63 47.04L115.63 61.69L75.49 61.69Z"/>
	<path class="st6" d="M27.44,11.14C27.44,12.25 26.54,13.14 25.43,13.14C24.33,13.14 23.43,12.25 23.43,11.14C23.43,10.03 24.33,9.14 25.43,9.14C26.54,9.14 27.44,10.03 27.44,11.14"/>
	<path class="st6" d="M34.63,11.14C34.63,12.25 33.73,13.14 32.62,13.14C31.52,13.14 30.62,12.25 30.62,11.14C30.62,10.03 31.52,9.14 32.62,9.14C33.73,9.14 34.63,10.03 34.63,11.14"/>
	<path class="st6" d="M41.82,11.14C41.82,12.25 40.92,13.14 39.81,13.14C38.71,13.14 37.81,12.25 37.81,11.14C37.81,10.03 38.71,9.14 39.81,9.14C40.92,9.14 41.82,10.03 41.82,11.14"/>
	<path class="st7" d="M39.81 30.74L56.12 30.74L56.12 31.87L39.81 31.87Z"/>
	<path class="st7" d="M56.12,40.07L34.63,40.07L34.63,38.94L56.12,38.94"/>
	<path class="st7" d="M36.81,31.31C36.81,32.29 36.01,33.09 35.02,33.09C34.03,33.09 33.23,32.29 33.23,31.31C33.23,30.32 34.03,29.52 35.02,29.52C36.01,29.52 36.81,30.32 36.81,31.31"/>
	<path class="st7" d="M68.12 30.74L84.43 30.74L84.43 31.87L68.12 31.87Z"/>
	<path class="st7" d="M65.11,31.31C65.11,32.29 64.31,33.09 63.32,33.09C62.33,33.09 61.53,32.29 61.53,31.31C61.53,30.32 62.33,29.52 63.32,29.52C64.31,29.52 65.11,30.32 65.11,31.31"/>
	<path class="st7" d="M96.28 30.74L112.59 30.74L112.59 31.87L96.28 31.87Z"/>
	<path class="st7" d="M93.27,31.31C93.27,32.29 92.47,33.09 91.49,33.09C90.5,33.09 89.7,32.29 89.7,31.31C89.7,30.32 90.5,29.52 91.49,29.52C92.47,29.52 93.27,30.32 93.27,31.31"/>
	<path class="st7" d="M78.22 49.23L84.72 49.23L84.72 55.73L78.22 55.73Z"/>
	<path class="st7" d="M87.61 49.29L111.8 49.29L111.8 50.01L87.61 50.01Z"/>
	<path class="st7" d="M87.61 52.15L111.8 52.15L111.8 52.87L87.61 52.87Z"/>
	<path class="st7" d="M87.61 55.01L111.8 55.01L111.8 55.73L87.61 55.73Z"/>
</svg>