<svg xmlns="http://www.w3.org/2000/svg" width="88.97" height="94.83" viewBox="0 0 88.97 94.83">
	<style type="text/css">
		.st1{stroke:#395060;fill:none;stroke-width:3;stroke-linecap:round;stroke-linejoin:round;}
		.st0{stroke:#395060;fill:none;stroke-width:4;stroke-linecap:round;stroke-linejoin:round;}
	</style>
	<path class="st0" d="M15.09,64.83L27.63,53.33L39.92,53.33L45.37,56.56L59.56,56.56C59.56,56.56 64.24,56.69 64.24,61.6C64.24,66.51 60.44,66.77 59.18,66.77L43.72,66.77"/>
	<path class="st0" d="M64.24,58.76L71.47,55.14L76.53,48.93C76.53,48.93 78.56,46.22 82.23,46.22C85.91,46.22 88.19,49.06 86.29,52.49C84.39,55.91 66.9,76.99 65.38,78.54C63.86,80.09 30.29,78.54 30.29,78.54"/>
	<path class="st0" d="M30.94,81.35L19.76,92.83L1.99,74.7L13.17,63.22L30.94,81.35Z"/>
	<path class="st1" d="M12.44,74.59L13.2,75.37"/>
	<path class="st1" d="M29.78,43.55L29.78,15.71L46.13,15.71"/>
	<path class="st1" d="M79.61,38.15L79.61,8.71L65.27,8.71"/>
	<path class="st1" d="M46.13,46.25L46.13,1.49L63.23,1.49L63.23,46.25"/>
</svg>