<svg xmlns="http://www.w3.org/2000/svg" width="106.89" height="74.72" viewBox="0 0 106.89 74.72">
	<style type="text/css">
		.st2{stroke:#395060;fill:none;stroke-width:4;stroke-linecap:round;stroke-linejoin:round;}
		.st1{stroke-linecap:round;stroke-linejoin:round;}
		.st0{stroke:#395060;fill:none;stroke-width:3;stroke-linecap:round;stroke-linejoin:round;}
	</style>
	<path class="st0" d="M12.98,31.79L42.24,31.79"/>
	<path class="st0" d="M12.98,41.73L47.24,41.73"/>
	<path class="st0" d="M12.98,51.67L33.24,51.67"/>
	<path class="st0" d="M12.98,61.6L42.24,61.6"/>
	<path class="st2" d="M84.72,64.1L84.72,72.72L1.99,72.72L1.99,1.99L84.72,1.99L84.72,26.58"/>
	<path class="st2" d="M1.99,20.51L84.72,20.51"/>
	<path class="st2" d="M12.98,10.93L13.73,10.93"/>
	<path class="st2" d="M22.64,10.93L23.38,10.93"/>
	<path class="st2" d="M32.29,10.93L33.03,10.93"/>
	<path class="st2" d="M93.83,33.33C100.98,40.48 100.98,52.07 93.83,59.22C86.68,66.37 75.09,66.37 67.94,59.22C60.79,52.07 60.79,40.48 67.94,33.33C75.09,26.18 86.68,26.18 93.83,33.33Z"/>
	<path class="st2" d="M92.73,60.56L104.89,72.72"/>
	<path class="st0" d="M80.89,37.32C83.18,37.32 85.47,38.19 87.22,39.94C88.97,41.69 89.85,43.98 89.85,46.27"/>
</svg>