<svg xmlns="http://www.w3.org/2000/svg" width="75.22" height="88.06" viewBox="0 0 75.22 88.06">
	<style type="text/css">
		.st1{stroke:#395060;fill:none;stroke-width:4;stroke-linecap:round;stroke-linejoin:round;}
		.st0{stroke:#395060;fill:none;stroke-width:3;stroke-linecap:round;stroke-linejoin:round;}
	</style>
	<path class="st0" d="M20.22,21.2L19.73,39.13L2.29,39.13"/>
	<path class="st1" d="M49.1,48.75L49.1,86.07L2,86.07L2,36.67L17.32,21.35L49.1,21.35L49.1,31.67"/>
	<path class="st0" d="M44.34,2.85L43.84,21.78L25.41,21.78"/>
	<path class="st1" d="M26.11,20.2L26.11,17.32L41.43,1.99L73.22,1.99L73.22,66.71L50.1,66.71"/>
	<path class="st0" d="M36.08,46.26L62.95,46.26"/>
	<path class="st0" d="M58.51,41.38L63.39,46.26L58.51,51.15"/>
	<path class="st0" d="M63.39,34.13L36.52,34.13"/>
	<path class="st0" d="M40.96,29.25L36.08,34.13L40.96,39.02"/>
</svg>