<svg xmlns="http://www.w3.org/2000/svg" width="73.62" height="77.64" viewBox="0 0 73.62 77.64">
	<style type="text/css">
		.st1{stroke:#395060;fill:none;stroke-width:4;stroke-linecap:round;stroke-linejoin:round;}
		.st0{stroke:#395060;fill:none;stroke-width:3;stroke-linecap:round;stroke-linejoin:round;}
	</style>
	<path class="st0" d="M40.37,24.97C40.37,29.54 36.67,33.25 32.09,33.25C27.52,33.25 23.81,29.54 23.81,24.97C23.81,20.4 27.52,16.69 32.09,16.69C36.67,16.69 40.37,20.4 40.37,24.97Z"/>
	<path class="st0" d="M42.53,35.29C39.87,37.98 36.18,39.65 32.09,39.65C28,39.65 24.3,37.97 21.63,35.27"/>
	<path class="st0" d="M14.9,55.5L14.9,46.86C14.9,41.96 17.58,37.66 21.55,35.35"/>
	<path class="st0" d="M42.53,35.29C46.56,37.58 49.29,41.92 49.29,46.86L49.29,48.76C49.29,49.09 49.28,56.06 49.25,56.39"/>
	<path class="st1" d="M53.43,10.82C65.19,22.58 65.19,41.66 53.43,53.43C41.66,65.19 22.58,65.19 10.82,53.43C-0.94,41.66 -0.94,22.58 10.82,10.82C22.58,-0.94 41.66,-0.94 53.43,10.82Z"/>
	<path class="st0" d="M23.55,47.83L23.55,58.81"/>
	<path class="st0" d="M40.37,47.83L40.37,58.81"/>
	<path class="st1" d="M50.22,54.24L71.62,75.64"/>
</svg>