<svg xmlns="http://www.w3.org/2000/svg" width="96.55" height="88.5" viewBox="0 0 96.55 88.5">
	<style type="text/css">
		.st1{stroke:#395060;fill:none;stroke-width:3;stroke-linecap:round;stroke-linejoin:round;}
		.st0{stroke:#395060;fill:none;stroke-width:4;stroke-linecap:round;stroke-linejoin:round;}
	</style>
	<path class="st0" d="M42.66,22.33C42.66,33.56 33.56,42.66 22.33,42.66C11.1,42.66 2,33.56 2,22.33C2,11.1 11.1,1.99 22.33,1.99C33.56,1.99 42.66,11.1 42.66,22.33Z"/>
	<path class="st1" d="M28.99,17.73C28.99,21.41 26.01,24.4 22.33,24.4C18.65,24.4 15.66,21.41 15.66,17.73C15.66,14.05 18.65,11.07 22.33,11.07C26.01,11.07 28.99,14.05 28.99,17.73Z"/>
	<path class="st1" d="M8.49,33.65L8.49,35.35C8.49,29.46 13.31,24.64 19.2,24.64"/>
	<path class="st0" d="M19.2,24.64L25.46,24.64C31.35,24.64 36.17,29.46 36.17,35.35L36.17,36.88C36.17,37.15 36.16,36.62 36.14,36.88"/>
	<path class="st0" d="M94.55,22.33C94.55,33.56 85.45,42.66 74.22,42.66C62.99,42.66 53.88,33.56 53.88,22.33C53.88,11.1 62.99,1.99 74.22,1.99C85.45,1.99 94.55,11.1 94.55,22.33Z"/>
	<path class="st1" d="M80.88,17.73C80.88,21.41 77.9,24.4 74.22,24.4C70.54,24.4 67.55,21.41 67.55,17.73C67.55,14.05 70.54,11.07 74.22,11.07C77.9,11.07 80.88,14.05 80.88,17.73Z"/>
	<path class="st1" d="M60.38,33.65L60.38,35.35C60.38,29.46 65.19,24.64 71.08,24.64"/>
	<path class="st1" d="M71.08,24.64L77.35,24.64C83.24,24.64 88.06,29.46 88.06,35.35L88.06,36.88C88.06,37.15 88.05,36.62 88.03,36.88"/>
	<path class="st0" d="M68.61,66.16C68.61,77.39 59.5,86.5 48.27,86.5C37.04,86.5 27.94,77.39 27.94,66.16C27.94,54.93 37.04,45.83 48.27,45.83C59.5,45.83 68.61,54.93 68.61,66.16Z"/>
	<path class="st1" d="M54.94,61.57C54.94,65.25 51.95,68.23 48.27,68.23C44.59,68.23 41.61,65.25 41.61,61.57C41.61,57.89 44.59,54.9 48.27,54.9C51.95,54.9 54.94,57.89 54.94,61.57Z"/>
	<path class="st1" d="M34.43,77.49L34.43,79.18C34.43,73.3 39.25,68.48 45.14,68.48"/>
	<path class="st1" d="M45.14,68.48L51.41,68.48C57.29,68.48 62.11,73.29 62.11,79.18L62.11,80.71C62.11,80.98 62.1,80.45 62.08,80.71"/>
	<path class="st1" d="M48.52,44.83L48.52,37.24L40.03,31.88"/>
	<path class="st1" d="M48.03,37.24L56.52,31.88"/>
</svg>